<svg xmlns="http://www.w3.org/2000/svg" xmlns:xlink="http://www.w3.org/1999/xlink" version="1.1" x="0px" y="0px" viewBox="0 0 100 125" enable-background="new 0 0 100 100" xml:space="preserve"><g><path d="M66.681,23H33.414c0,0-29.116,52.906,8.321,53.438c2.084,0.037,3.9,0.058,5.504,0.079l-0.899,14.54l-14.403,1.635L30.2,94   h40.366l-1.734-1.385l-14.417-1.501l-0.941-14.561c1.65-0.031,3.518-0.087,5.672-0.133C96.604,75.741,66.681,23,66.681,23z    M64.018,31.292c2.944-1.969,6.899,11.851,8.368,16.702c2.083,6.925-3.387,20.475-6.365,17.542   c-2.962-2.928,1.852-7.22,2.055-11.66C68.463,45.63,60.525,33.634,64.018,31.292z"/></g><text x="0" y="115" fill="#000000" font-size="5px" font-weight="bold" font-family="'Helvetica Neue', Helvetica, Arial-Unicode, Arial, Sans-serif">Created by Zach Harris</text><text x="0" y="120" fill="#000000" font-size="5px" font-weight="bold" font-family="'Helvetica Neue', Helvetica, Arial-Unicode, Arial, Sans-serif">from the Noun Project</text></svg>