<svg xmlns="http://www.w3.org/2000/svg" xmlns:xlink="http://www.w3.org/1999/xlink" version="1.1" x="0px" y="0px" viewBox="0 0 100 125" enable-background="new 0 0 100 100" xml:space="preserve"><g><path d="M68.655,73.998c19.933-4.568,9.014-27.014,2.333-44.095C67.209,20.241,73.38,16,73.38,16l-44.897,0.088   c0,0,6.181,4.224,2.446,13.895C24.326,47.089,13.502,69.588,33.43,74.07c19.857,4.469,9.305,12.078,9.491,15.471l-15.696,1.582   L26.031,93h50.125l-1.204-1.977l-15.717-1.638C59.412,85.987,48.826,78.549,68.655,73.998z M63.176,26.659   c2.934-1.968,10.327,23.461,11.317,28.445c0.985,4.975-4.868,14.604-7.829,11.67c-2.979-2.928,1.482-3.428,2.045-11.654   C69.274,46.88,59.676,28.994,63.176,26.659z"/></g><text x="0" y="115" fill="#000000" font-size="5px" font-weight="bold" font-family="'Helvetica Neue', Helvetica, Arial-Unicode, Arial, Sans-serif">Created by Zach Harris</text><text x="0" y="120" fill="#000000" font-size="5px" font-weight="bold" font-family="'Helvetica Neue', Helvetica, Arial-Unicode, Arial, Sans-serif">from the Noun Project</text></svg>