<?xml version="1.0" encoding="utf-8"?>
<!-- Generator: Adobe Illustrator 18.0.0, SVG Export Plug-In . SVG Version: 6.00 Build 0)  -->
<!DOCTYPE svg PUBLIC "-//W3C//DTD SVG 1.1//EN" "http://www.w3.org/Graphics/SVG/1.1/DTD/svg11.dtd">
<svg version="1.1" id="Layer_1" xmlns="http://www.w3.org/2000/svg" xmlns:xlink="http://www.w3.org/1999/xlink" x="0px" y="0px"
	 viewBox="0 0 864 864" enable-background="new 0 0 864 864" xml:space="preserve">
<g>
	<path d="M547.3,159H317.4c0,0-201.2,365.7,57.5,369.4c14.4,0.3,27,0.4,38,0.5l-6.2,100.5l-99.6,11.3l-12,9h279l-12-9.6l-99.7-10.4
		L456,529.1c11.4-0.2,24.3-0.6,39.2-0.9C754.1,523.5,547.3,159,547.3,159z M528.9,216.3c20.3-13.6,47.7,81.9,57.8,115.4
		c14.4,47.9-23.4,141.5-44,121.3c-20.5-20.2,12.8-49.9,14.2-80.6C559.6,315.4,504.7,232.5,528.9,216.3z"/>
</g>
</svg>
