<svg xmlns="http://www.w3.org/2000/svg" xmlns:xlink="http://www.w3.org/1999/xlink" version="1.1" x="0px" y="0px" viewBox="0 0 100 125" enable-background="new 0 0 100 100" xml:space="preserve"><path d="M66.124,2.117c-1.786-0.653-8.762-1.141-17.114-1.141c-8.034,0-14.793,0.451-16.887,1.067  c3.361,0.965,9.307,1.77,17.142,1.77C56.896,3.812,62.72,3.048,66.124,2.117z"/><path d="M49.265,4.812c-5.787,0-13.481-0.557-17.846-1.951c-1.514,26.831,7.238,44.048,7.392,74.179  c0.017,3.338-0.616,6.785-1.337,9.761c2.279,0.475,6.139,0.913,11.536,0.913s9.258-0.438,11.537-0.913  c-0.722-2.976-1.354-6.424-1.338-9.761c0.154-30.072,8.872-47.283,7.399-74.025C62.174,4.297,54.834,4.812,49.265,4.812z"/><path d="M49.01,89.89c-2.974,0-8.387-0.132-12.079-0.985c-0.775,2.866-1.497,5.047-1.497,5.826c0,1.696,2.937,4.216,13.576,4.216  s13.576-2.52,13.576-4.216c0-0.779-0.722-2.96-1.497-5.827C57.397,89.758,51.983,89.89,49.01,89.89z"/><text x="0" y="115" fill="#000000" font-size="5px" font-weight="bold" font-family="'Helvetica Neue', Helvetica, Arial-Unicode, Arial, Sans-serif">Created by Clockwise</text><text x="0" y="120" fill="#000000" font-size="5px" font-weight="bold" font-family="'Helvetica Neue', Helvetica, Arial-Unicode, Arial, Sans-serif">from the Noun Project</text></svg>