<?xml version="1.0" encoding="utf-8"?>
<!-- Generator: Adobe Illustrator 18.0.0, SVG Export Plug-In . SVG Version: 6.00 Build 0)  -->
<!DOCTYPE svg PUBLIC "-//W3C//DTD SVG 1.1//EN" "http://www.w3.org/Graphics/SVG/1.1/DTD/svg11.dtd">
<svg version="1.1" id="Layer_1" xmlns="http://www.w3.org/2000/svg" xmlns:xlink="http://www.w3.org/1999/xlink" x="0px" y="0px"
	 viewBox="0 0 864 864" enable-background="new 0 0 864 864" xml:space="preserve">
<path d="M543.4,14.6c-12.3-4.5-60.6-7.9-118.3-7.9c-55.5,0-102.2,3.1-116.7,7.4c23.2,6.7,64.3,12.2,118.5,12.2
	C479.7,26.3,519.9,21.1,543.4,14.6z"/>
<path d="M426.9,33.3c-40,0-93.2-3.8-123.4-13.5c-10.5,185.5,50,304.5,51.1,512.7c0.1,23.1-4.3,46.9-9.2,67.5
	c15.8,3.3,42.4,6.3,79.7,6.3s64-3,79.7-6.3c-5-20.6-9.4-44.4-9.2-67.5c1.1-207.9,61.3-326.8,51.1-511.7
	C516.1,29.7,465.4,33.3,426.9,33.3z"/>
<path d="M425.2,621.3c-20.6,0-58-0.9-83.5-6.8c-5.4,19.8-10.3,34.9-10.3,40.3c0,11.7,20.3,29.1,93.8,29.1s93.8-17.4,93.8-29.1
	c0-5.4-5-20.5-10.3-40.3C483.1,620.4,445.7,621.3,425.2,621.3z"/>
</svg>
