<?xml version="1.0" encoding="utf-8"?>
<!-- Generator: Adobe Illustrator 18.0.0, SVG Export Plug-In . SVG Version: 6.00 Build 0)  -->
<!DOCTYPE svg PUBLIC "-//W3C//DTD SVG 1.1//EN" "http://www.w3.org/Graphics/SVG/1.1/DTD/svg11.dtd">
<svg version="1.1" id="Layer_1" xmlns="http://www.w3.org/2000/svg" xmlns:xlink="http://www.w3.org/1999/xlink" x="0px" y="0px"
	 viewBox="0 0 864 756" enable-background="new 0 0 864 756" xml:space="preserve">
<g>
	<path d="M560.9,511.5c137.8-31.6,62.3-186.7,16.1-304.8c-26.1-66.8,16.5-96.1,16.5-96.1l-310.3,0.6c0,0,42.7,29.2,16.9,96
		C254.5,325.5,179.7,481,317.5,512c137.3,30.9,64.3,83.5,65.6,106.9l-108.5,10.9l-8.3,13h346.5l-8.3-13.7l-108.6-11.3
		C497.1,594.3,423.9,542.9,560.9,511.5z M523.1,184.3c20.3-13.6,71.4,162.2,78.2,196.6c6.8,34.4-33.6,100.9-54.1,80.7
		c-20.6-20.2,10.2-23.7,14.1-80.6C565.2,324,498.9,200.4,523.1,184.3z"/>
</g>
</svg>
