<?xml version="1.0" encoding="utf-8"?>
<!-- Generator: Adobe Illustrator 18.0.0, SVG Export Plug-In . SVG Version: 6.00 Build 0)  -->
<!DOCTYPE svg PUBLIC "-//W3C//DTD SVG 1.1//EN" "http://www.w3.org/Graphics/SVG/1.1/DTD/svg11.dtd">
<svg version="1.1" id="Layer_1" xmlns="http://www.w3.org/2000/svg" xmlns:xlink="http://www.w3.org/1999/xlink" x="0px" y="0px"
	 viewBox="0 0 864 864" enable-background="new 0 0 864 864" xml:space="preserve">
<path d="M538,211.7v-81.2c0-7.2-5.8-13-13-13H218.7c-7.2,0-13,5.8-13,13v537.9c0,7.2,5.8,13,13,13H525c7.2,0,13-5.8,13-13v-97.2
	c68.1-4.8,122.1-61.8,122.1-131.1v-97.2C660.1,273.5,606.2,216.5,538,211.7z M512,655.3H231.8v-50H512L512,655.3L512,655.3z
	 M277.1,529.5V263.1c0-7.2,5.8-13,13-13c7.2,0,13,5.8,13,13v266.4c0,7.2-5.8,13-13,13C282.9,542.5,277.1,536.7,277.1,529.5z
	 M358.9,529.5V263.1c0-7.2,5.8-13,13-13c7.2,0,13,5.8,13,13v266.4c0,7.2-5.8,13-13,13C364.7,542.5,358.9,536.7,358.9,529.5z
	 M440.6,529.5V263.1c0-7.2,5.8-13,13-13s13,5.8,13,13v266.4c0,7.2-5.8,13-13,13S440.6,536.7,440.6,529.5z M512,196H231.8v-52.5H512
	L512,196L512,196z M538,290.3c25,4.4,44,26.3,44,52.5V440c0,26.2-19,48-44,52.5V290.3z M634.1,440c0,55-42.3,100.3-96.1,105v-26.2
	c39.4-4.7,70-38.2,70-78.8v-97.2c0-40.6-30.7-74.2-70-78.8v-26.2c53.8,4.8,96.1,50,96.1,105V440z"/>
<path d="M525.6,110.2c-7.1,0-12.9-5.8-12.9-12.9c0-14.4-18-58-50.7-58H281.8c-32.7,0-50.7,43.6-50.7,58c0,7.1-5.8,12.9-12.9,12.9
	c-7.1,0-12.9-5.8-12.9-12.9c0-25,26-83.8,76.5-83.8H462c50.4,0,76.5,58.7,76.5,83.8C538.4,104.4,532.7,110.2,525.6,110.2z"/>
</svg>
